<svg width="79" height="80" xmlns="http://www.w3.org/2000/svg" xmlns:xlink="http://www.w3.org/1999/xlink" xml:space="preserve" overflow="hidden"><defs><clipPath id="clip0"><rect x="618" y="90" width="79" height="80"/></clipPath></defs><g clip-path="url(#clip0)" transform="translate(-618 -90)"><path d="M75.1323 27.9792 72.0052 24.8521C71.2646 24.1115 70.1948 24.1115 69.4542 24.7698 68.7958 25.4281 67.726 25.5104 66.9854 24.8521 66.2448 24.1115 66.2448 22.8771 66.9854 22.1365 67.6437 21.3958 67.5615 20.326 66.9031 19.6677L59.25 12.0969C54.6417 7.48854 45.425 5.925 36.3729 8.39375 36.2906 8.39375 36.2083 8.47604 36.126 8.47604 35.7969 8.72292 35.55 9.05208 35.6323 9.46354 35.7146 9.875 35.9615 10.2042 36.3729 10.3688 37.525 10.7802 39.6646 11.4385 39.6646 11.4385 44.6844 13.1667 49.7042 19.75 50.3625 21.0667L26.5802 44.6844 25.9219 44.026C25.1813 43.2854 24.0292 43.2854 23.3708 44.026L4.27917 63.2 4.36146 63.2823C2.79792 65.4219 3.04479 68.3021 4.9375 70.1948 6.83021 72.0052 9.71042 72.3344 11.85 70.7708L11.9323 70.8531 31.1063 51.6792C31.8469 50.9385 31.8469 49.7865 31.1063 49.1281L30.4479 48.4698 54.0656 24.8521 57.851 28.6375C58.5917 29.3781 59.6615 29.3781 60.4021 28.7198 61.0604 28.0615 62.1302 27.9792 62.8708 28.6375 63.6115 29.3781 63.6115 30.6125 62.8708 31.3531 62.2125 32.0938 62.2948 33.1635 62.9531 33.8219L66.1625 36.949C66.9031 37.6896 68.0552 37.6896 68.7958 36.949L75.1323 30.6125C75.4615 30.2833 75.7083 29.7896 75.7083 29.2958 75.7083 28.8021 75.5438 28.3083 75.1323 27.9792Z" fill="#47A1DE" transform="matrix(1 0 0 1.01266 618 90)"/></g></svg>