<svg width="85" height="85" xmlns="http://www.w3.org/2000/svg" xmlns:xlink="http://www.w3.org/1999/xlink" xml:space="preserve" overflow="hidden"><defs><clipPath id="clip0"><rect x="618" y="281" width="85" height="85"/></clipPath></defs><g clip-path="url(#clip0)" transform="translate(-618 -281)"><path d="M624.198 335.01 690.392 335.01 682.529 327.148C681.529 326.075 681.588 324.394 682.662 323.394 683.682 322.443 685.263 322.443 686.283 323.394L698.679 335.79C699.715 336.827 699.715 338.507 698.679 339.544L686.283 351.94C685.246 352.975 683.566 352.975 682.529 351.94 681.493 350.902 681.493 349.223 682.529 348.185L690.392 340.323 624.198 340.323C622.731 340.323 621.542 339.134 621.542 337.667 621.542 336.2 622.731 335.01 624.198 335.01Z" fill="#47A1DE"/><path d="M696.802 306.677 630.608 306.677 638.471 298.815C639.544 297.815 639.603 296.134 638.603 295.06 637.603 293.987 635.922 293.928 634.849 294.928 634.803 294.97 634.759 295.015 634.717 295.06L622.321 307.456C621.285 308.493 621.285 310.173 622.321 311.21L634.717 323.606C635.754 324.642 637.434 324.642 638.471 323.606 639.507 322.569 639.507 320.889 638.471 319.852L630.608 311.99 696.802 311.99C698.269 311.99 699.458 310.8 699.458 309.333 699.458 307.866 698.269 306.677 696.802 306.677Z" fill="#47A1DE"/></g></svg>