<svg width="83" height="83" xmlns="http://www.w3.org/2000/svg" xmlns:xlink="http://www.w3.org/1999/xlink" xml:space="preserve" overflow="hidden"><defs><clipPath id="clip0"><rect x="1085" y="492" width="83" height="83"/></clipPath></defs><g clip-path="url(#clip0)" transform="translate(-1085 -492)"><path d="M1111.96 536.377C1108.4 537.577 1105.07 539.359 1102.09 541.651 1100.07 543.229 1098.88 545.635 1098.83 548.198L1098.83 563.389 1099.6 563.902C1101.4 565.1 1104.5 566.04 1108.34 566.729L1108.34 561.167 1124.77 561.167 1124.77 568.124C1125.43 568.134 1126.08 568.139 1126.74 568.14 1127.24 568.14 1127.73 568.133 1128.23 568.128L1128.23 561.167 1144.66 561.167 1144.66 566.792C1148.64 566.086 1151.79 565.105 1153.47 563.847L1154.17 563.328 1154.17 548.162C1154.12 545.623 1152.94 543.24 1150.94 541.672 1147.97 539.379 1144.63 537.594 1141.08 536.39L1135.69 534.229C1135.36 534.098 1135.15 533.782 1135.15 533.431L1135.15 531.314C1138.42 528.695 1140.33 524.727 1140.33 520.531L1140.33 514.479 1141.2 514.479C1142.15 514.479 1142.93 513.705 1142.93 512.75 1142.93 511.795 1142.15 511.021 1141.2 511.021L1140.33 511.021C1140.03 506.246 1137.29 501.966 1133.07 499.703L1131.69 505.176C1131.59 505.572 1131.23 505.845 1130.82 505.833L1130.62 505.833C1130.15 505.736 1129.85 505.277 1129.95 504.81 1129.95 504.81 1129.95 504.81 1129.95 504.81 1129.95 504.793 1129.95 504.778 1129.96 504.761L1131.6 498.286C1131.31 497.137 1130.28 496.329 1129.1 496.323L1123.91 496.323C1122.73 496.327 1121.69 497.135 1121.4 498.286L1123.05 504.761C1123.17 505.221 1122.9 505.696 1122.44 505.822L1122.39 505.833 1122.18 505.833C1121.78 505.845 1121.42 505.572 1121.32 505.176L1119.98 499.703C1115.76 501.966 1113.02 506.246 1112.72 511.021L1111.81 511.021C1110.85 511.021 1110.08 511.795 1110.08 512.75 1110.08 513.705 1110.85 514.479 1111.81 514.479L1112.67 514.479 1112.67 520.531C1112.67 524.724 1114.58 528.689 1117.85 531.308L1117.85 533.431C1117.85 533.78 1117.64 534.096 1117.32 534.229ZM1116.12 520.531 1116.12 514.479 1136.88 514.479 1136.88 520.531C1136.88 526.261 1132.23 530.906 1126.5 530.906 1120.77 530.906 1116.12 526.261 1116.12 520.531ZM1124.77 557.708 1108.62 557.708 1111.33 540.397 1118.63 537.43C1118.68 537.409 1118.72 537.379 1118.77 537.356L1124.78 551.656ZM1126.5 537.823C1124.18 537.846 1121.86 537.513 1119.64 536.836 1120.69 536.022 1121.31 534.764 1121.31 533.431L1121.31 533.344C1124.64 534.703 1128.37 534.703 1131.69 533.344L1131.69 533.431C1131.69 534.77 1132.31 536.034 1133.38 536.847 1131.15 537.518 1128.83 537.848 1126.5 537.823ZM1128.23 557.708 1128.23 551.656 1134.23 537.36C1134.28 537.384 1134.33 537.414 1134.38 537.436L1141.73 540.375 1144.4 557.708Z" fill="#47A1DE"/></g></svg>