<svg width="84" height="84" xmlns="http://www.w3.org/2000/svg" xmlns:xlink="http://www.w3.org/1999/xlink" xml:space="preserve" overflow="hidden"><defs><clipPath id="clip0"><rect x="1083" y="91" width="84" height="84"/></clipPath></defs><g clip-path="url(#clip0)" transform="translate(-1083 -91)"><path d="M1151.95 109.716 1155.07 106.623C1155.74 106.027 1155.81 104.995 1155.21 104.316 1155.18 104.278 1155.15 104.241 1155.11 104.206L1152.05 101.144C1151.38 100.465 1150.29 100.452 1149.61 101.116 1149.61 101.125 1149.6 101.134 1149.59 101.144L1146.47 104.237Z" fill="#47A1DE"/><path d="M1140.75 143.938 1140.75 141.312 1134.19 141.312 1134.19 150.938 1132.88 150.938 1132.88 153.562 1149.94 153.562 1149.94 122.938 1142.55 122.938 1139.93 125.562 1147.31 125.562 1147.31 133.438 1133.75 133.438 1133.75 136.062 1147.31 136.062 1147.31 141.312 1145.13 141.312 1145.13 143.938 1147.31 143.938 1147.31 150.938 1136.81 150.938 1136.81 143.938 1140.75 143.938Z" fill="#47A1DE"/><path d="M1154.37 111.125 1149.12 116.375 1155.62 116.375 1155.62 159.25 1104.42 159.25C1104.62 158.684 1104.76 158.097 1104.82 157.5L1104.88 156.625 1104.88 116.375 1130.67 116.375 1135.91 111.125 1104.88 111.125 1104.88 110.25C1104.88 105.901 1101.35 102.375 1097 102.375 1092.65 102.375 1089.12 105.901 1089.12 110.25L1089.12 156.625 1089.18 157.5C1089.61 161.334 1092.76 164.289 1096.61 164.481L1096.61 164.5 1160.88 164.5 1160.88 111.125ZM1097 159.25C1095.55 159.25 1094.38 158.075 1094.38 156.625 1094.38 155.175 1095.55 154 1097 154 1098.45 154 1099.62 155.175 1099.62 156.625 1099.62 158.075 1098.45 159.25 1097 159.25ZM1099.62 149.209C1097.93 148.597 1096.07 148.597 1094.38 149.209L1094.38 110.25C1094.38 108.8 1095.55 107.625 1097 107.625 1098.45 107.625 1099.62 108.8 1099.62 110.25Z" fill="#47A1DE"/><path d="M1121.5 125.562 1124.12 122.938 1110.56 122.938 1110.56 153.562 1127.63 153.562 1127.63 150.938 1126.31 150.938 1126.31 141.312 1119.75 141.312 1119.75 143.938 1123.69 143.938 1123.69 150.938 1113.19 150.938 1113.19 143.938 1115.38 143.938 1115.38 141.312 1113.19 141.312 1113.19 136.062 1118.01 136.062 1118.88 133.438 1113.19 133.438 1113.19 125.562 1121.5 125.562Z" fill="#47A1DE"/><path d="M1145.25 105.485 1123.78 126.991 1121.06 135.188 1129.31 132.469 1150.77 111.004ZM1128.4 130.961 1124.73 132.171 1124.09 131.523 1125.29 127.855C1126.17 127.025 1127.55 127.044 1128.4 127.898 1129.25 128.719 1129.27 130.071 1128.44 130.917 1128.43 130.932 1128.42 130.947 1128.4 130.961Z" fill="#47A1DE"/></g></svg>